<?xml version="1.0" encoding="utf-8"?>
<!-- Generator: Adobe Illustrator 16.0.0, SVG Export Plug-In . SVG Version: 6.00 Build 0)  -->
<!DOCTYPE svg PUBLIC "-//W3C//DTD SVG 1.1//EN" "http://www.w3.org/Graphics/SVG/1.1/DTD/svg11.dtd">
<svg version="1.1" id="Layer_1" xmlns="http://www.w3.org/2000/svg" xmlns:xlink="http://www.w3.org/1999/xlink" x="0px" y="0px"
	 width="64.333px" height="44.333px" viewBox="0 0 64.333 44.333" enable-background="new 0 0 64.333 44.333" xml:space="preserve">
<g>
	<g>
		<g>
			<path fill="#337ab7" d="M55.707,8.665h-9.962V3.589c0-0.564-0.456-1.021-1.018-1.021H20.446c-0.562,0-1.018,0.457-1.018,1.021
				v5.076H8.51c-1.864,0-3.381,1.522-3.381,3.393v17.261c0,1.871,1.517,3.394,3.381,3.394h10.918v8.833
				c0,0.564,0.455,1.021,1.018,1.021h24.281c0.562,0,1.018-0.458,1.018-1.021v-8.833h9.962c1.864,0,3.381-1.522,3.381-3.394V12.058
				C59.087,10.187,57.571,8.665,55.707,8.665z M45.745,10.708h2.428v2.858h-2.428V10.708z M21.463,4.611h22.245v8.956H21.463V4.611z
				 M17,10.708h2.428v2.859H17V10.708z M43.708,40.524H21.463V28.072h22.245V40.524z M57.052,29.319
				c0,0.745-0.604,1.351-1.346,1.351h-9.962v-2.597h1.856c0.562,0,1.019-0.458,1.019-1.021s-0.456-1.021-1.019-1.021h-2.874H20.446
				h-2.875c-0.562,0-1.018,0.458-1.018,1.021s0.456,1.021,1.018,1.021h1.857v2.597H8.51c-0.741,0-1.346-0.605-1.346-1.351V12.058
				c0-0.744,0.604-1.351,1.346-1.351h6.455v3.88c0,0.564,0.456,1.021,1.018,1.021h33.209c0.562,0,1.018-0.458,1.018-1.021v-3.88
				h5.498c0.741,0,1.346,0.606,1.346,1.351V29.319z M25.04,36.884h6.751c0.562,0,1.019-0.458,1.019-1.021
				c0-0.564-0.456-1.022-1.019-1.022H25.04c-0.562,0-1.018,0.458-1.018,1.022C24.022,36.427,24.477,36.884,25.04,36.884z
				 M25.04,32.712h12.094c0.562,0,1.018-0.458,1.018-1.021s-0.455-1.021-1.018-1.021H25.04c-0.562,0-1.018,0.458-1.018,1.021
				S24.477,32.712,25.04,32.712z"/>
		</g>
	</g>
</g>
</svg>
