<svg xmlns="http://www.w3.org/2000/svg" width="115.319" height="92.255" viewBox="0 0 115.319 92.255">
  <path id="laptop" d="M112.436,74.958H68.748a5.68,5.68,0,0,1-5.9,5.766H51.894a6.119,6.119,0,0,1-5.9-5.766H2.883A2.891,2.891,0,0,0,0,77.841v2.883A11.566,11.566,0,0,0,11.532,92.255h92.255a11.566,11.566,0,0,0,11.532-11.532V77.841A2.891,2.891,0,0,0,112.436,74.958ZM103.787,8.649A8.674,8.674,0,0,0,95.138,0H20.181a8.674,8.674,0,0,0-8.649,8.649V69.192h92.255ZM92.255,57.66H23.064V11.532H92.255Z" fill="#337ab7"/>
</svg>
