<?xml version="1.0" encoding="utf-8"?>
<!-- Generator: Adobe Illustrator 16.0.0, SVG Export Plug-In . SVG Version: 6.00 Build 0)  -->
<!DOCTYPE svg PUBLIC "-//W3C//DTD SVG 1.1//EN" "http://www.w3.org/Graphics/SVG/1.1/DTD/svg11.dtd">
<svg version="1.1" id="Capa_1" xmlns="http://www.w3.org/2000/svg" xmlns:xlink="http://www.w3.org/1999/xlink" x="0px" y="0px"
	 width="60px" height="60px" viewBox="390.945 267.64 60 60" enable-background="new 390.945 267.64 60 60" xml:space="preserve">
<path fill="#97DBFF" d="M412.165,307.009l3.728-0.393l4.512,3.531l5.297-3.727l4.12,0.784c0,0,1.079,17.951,0.784,18.05
	c-0.294,0.099-9.515-5.199-9.515-5.199l-9.417,5.199L412.165,307.009z"/>
<g>
	<path fill="#4E5F80" d="M442.034,289.015l-3.093-4.041l0.66-5.045c0.076-0.578-0.246-1.134-0.784-1.357l-4.701-1.946l-1.946-4.702
		c-0.223-0.538-0.778-0.859-1.356-0.784l-5.046,0.661l-4.04-3.092c-0.462-0.354-1.104-0.354-1.565,0l-4.041,3.092l-5.045-0.66
		c-0.578-0.076-1.134,0.246-1.357,0.784l-1.947,4.702l-4.701,1.946c-0.538,0.223-0.86,0.779-0.784,1.357l0.661,5.045l-3.092,4.041
		c-0.354,0.462-0.354,1.103,0,1.565l3.092,4.041l-0.661,5.046c-0.076,0.577,0.246,1.135,0.784,1.356l4.701,1.947l1.946,4.701
		c0.172,0.417,0.545,0.702,0.973,0.775v17.104c0,0.47,0.256,0.901,0.667,1.128s0.914,0.21,1.311-0.041l8.275-5.249l8.276,5.249
		c0.21,0.134,0.449,0.201,0.689,0.201c0.214,0,0.427-0.054,0.62-0.16c0.411-0.227,0.667-0.658,0.667-1.128v-17.104
		c0.427-0.073,0.801-0.359,0.973-0.775l1.947-4.701l4.701-1.947c0.538-0.222,0.859-0.779,0.784-1.356l-0.661-5.046l3.093-4.041
		C442.388,290.119,442.388,289.477,442.034,289.015z M421.634,318.777c-0.42-0.268-0.958-0.268-1.379,0l-6.988,4.432v-15.04
		l2.854-0.373l4.041,3.092c0.23,0.177,0.507,0.265,0.782,0.265c0.276,0,0.552-0.088,0.782-0.265l4.041-3.092l2.854,0.373v15.04
		L421.634,318.777z M436.573,293.478c-0.207,0.271-0.299,0.612-0.254,0.95l0.601,4.594l-4.281,1.772
		c-0.316,0.131-0.567,0.382-0.697,0.697l-1.773,4.281l-4.594-0.602c-0.338-0.043-0.68,0.048-0.95,0.255l-3.68,2.817l-3.68-2.817
		c-0.226-0.173-0.501-0.265-0.783-0.265c-0.056,0-0.111,0.003-0.167,0.01l-4.594,0.602l-1.772-4.281
		c-0.131-0.315-0.381-0.566-0.697-0.697l-4.282-1.772l0.601-4.594c0.044-0.338-0.047-0.68-0.254-0.95l-2.817-3.68l2.817-3.68
		c0.207-0.271,0.298-0.612,0.254-0.95l-0.601-4.594l4.282-1.772c0.315-0.131,0.566-0.382,0.697-0.697l1.773-4.282l4.594,0.602
		c0.337,0.044,0.679-0.047,0.95-0.254l3.68-2.817l3.679,2.817c0.271,0.207,0.612,0.298,0.95,0.254l4.594-0.602l1.773,4.282
		c0.131,0.315,0.381,0.566,0.697,0.697l4.282,1.773l-0.602,4.594c-0.045,0.337,0.047,0.679,0.254,0.95l2.816,3.68L436.573,293.478z"
		/>
	<path fill="#4E5F80" d="M413.079,281.49c0.288,0,0.577-0.096,0.816-0.292c1.979-1.625,4.483-2.52,7.049-2.52
		c0.71,0,1.288-0.577,1.288-1.288c0-0.711-0.577-1.288-1.288-1.288c-3.161,0-6.244,1.103-8.684,3.104
		c-0.55,0.451-0.629,1.262-0.178,1.812C412.338,281.33,412.707,281.49,413.079,281.49z"/>
	<path fill="#4E5F80" d="M425.536,276.892c-0.67-0.238-1.406,0.111-1.645,0.782c-0.238,0.669,0.111,1.406,0.781,1.644
		c4.421,1.573,7.392,5.785,7.392,10.48c0,6.131-4.988,11.12-11.12,11.12s-11.12-4.988-11.12-11.12c0-2.181,0.631-4.292,1.824-6.105
		c0.391-0.594,0.227-1.393-0.367-1.784c-0.594-0.391-1.393-0.227-1.784,0.368c-1.471,2.234-2.249,4.835-2.249,7.521
		c0,7.551,6.144,13.695,13.695,13.695c7.551,0,13.695-6.144,13.695-13.695C434.64,284.016,430.982,278.83,425.536,276.892z"/>
</g>
</svg>
